<svg width="377" height="87" viewBox="0 0 377 87" fill="none" xmlns="http://www.w3.org/2000/svg">
<path d="M42.596 23.392C43.4547 18.792 43.0867 14.9893 41.492 11.984C39.8973 8.97866 37.628 6.70933 34.684 5.176C33.212 4.50133 31.5867 3.94933 29.808 3.51999C28.0907 3.09066 26.312 2.84533 24.472 2.784C22.6933 2.66133 20.9147 2.72266 19.136 2.968C17.3573 3.152 15.732 3.55066 14.26 4.164C11.316 5.39066 8.80133 7.26133 6.716 9.776C4.692 12.2907 3.312 15.0813 2.576 18.148C1.84 21.2147 1.87067 24.3733 2.668 27.624C3.52667 30.8747 5.36667 33.8493 8.188 36.548C9.04667 37.284 9.99733 37.928 11.04 38.48C12.0827 39.032 13.2173 39.4307 14.444 39.676C15.732 39.9213 17.112 40.1973 18.584 40.504C20.056 40.7493 21.4053 41.148 22.632 41.7C23.92 42.252 25.024 42.988 25.944 43.908C26.864 44.7667 27.416 45.932 27.6 47.404C27.968 49.5507 27.5387 51.1453 26.312 52.188C25.1467 53.2307 23.736 53.7827 22.08 53.844C20.4853 53.844 18.952 53.3533 17.48 52.372C16.0693 51.3907 15.3027 49.9187 15.18 47.956C13.0947 48.0173 10.764 47.9867 8.188 47.864C5.612 47.68 3.25067 47.7413 1.104 48.048V48.324V48.6C0.92 51.544 1.44133 54.1813 2.668 56.512C3.89467 58.7813 5.55067 60.7133 7.636 62.308C9.72133 63.9027 12.0827 65.16 14.72 66.08C17.4187 66.9387 20.1173 67.3987 22.816 67.46C24.7173 67.5213 26.5573 67.368 28.336 67C30.176 66.5707 31.8627 65.9267 33.396 65.068C34.9907 64.2093 36.4013 63.1053 37.628 61.756C38.8547 60.4067 39.836 58.7813 40.572 56.88C41.308 55.2853 41.8293 53.6293 42.136 51.912C42.504 50.1333 42.6267 48.3853 42.504 46.668C42.4427 44.9507 42.136 43.2947 41.584 41.7C41.032 40.044 40.204 38.5107 39.1 37.1C37.3213 34.4627 35.0213 32.2853 32.2 30.568C29.44 28.8507 26.4347 27.808 23.184 27.44C21.896 27.256 20.7 26.9187 19.596 26.428C18.492 25.9373 17.6947 24.956 17.204 23.484C17.1427 23.0547 17.0813 22.656 17.02 22.288C17.02 21.8587 17.0813 21.4293 17.204 21C17.4493 19.2827 18.2467 18.1173 19.596 17.504C21.0067 16.8907 22.448 16.7373 23.92 17.044C25.392 17.3507 26.6493 18.056 27.692 19.16C28.7347 20.264 29.072 21.644 28.704 23.3C30.8507 23.9133 33.1507 24.1893 35.604 24.128C38.0573 24.0053 40.3573 23.76 42.504 23.392H42.596ZM56.4283 20.724C54.4657 20.7853 52.779 20.7853 51.3683 20.724C49.9577 20.6627 48.8537 20.6013 48.0563 20.54C47.7497 20.54 47.2897 20.5093 46.6763 20.448C46.1243 20.3867 45.7257 20.3867 45.4803 20.448V20.54C45.1123 24.1587 44.9283 27.9 44.9283 31.764C44.9283 35.5667 44.9897 39.4307 45.1123 43.356C45.235 47.2813 45.2963 51.2373 45.2963 55.224C45.3577 59.2107 45.235 63.136 44.9283 67C45.3577 66.8773 46.2163 66.8467 47.5043 66.908C48.7923 66.9693 50.1417 67 51.5523 67C53.0243 67.0613 54.3737 67.0613 55.6003 67C56.827 67 57.5937 66.816 57.9003 66.448C57.471 59.0267 57.3483 51.452 57.5323 43.724C57.7777 35.996 57.931 28.4213 57.9923 21V20.724H56.4283ZM45.1123 0.667999C45.051 3.48933 45.0817 5.88133 45.2043 7.844C45.3883 9.74533 45.4803 11.5853 45.4803 13.364C46.6457 13.3027 47.903 13.3333 49.2523 13.456C50.6017 13.5173 51.859 13.5787 53.0243 13.64C54.251 13.64 55.2937 13.5787 56.1523 13.456C57.0723 13.3333 57.655 13.088 57.9003 12.72C57.9003 11.8 57.8697 10.7573 57.8083 9.592C57.8083 8.36533 57.7777 7.19999 57.7163 6.09599C57.7163 4.93066 57.6857 3.888 57.6243 2.968C57.6243 1.98666 57.6243 1.312 57.6243 0.943995L45.1123 0.667999ZM73.6352 25.968C73.5739 25.1093 73.5432 24.3427 73.5432 23.668C73.6046 22.9933 73.5739 22.1347 73.4512 21.092C73.4512 20.908 73.2059 20.816 72.7152 20.816C72.2246 20.7547 71.6726 20.7547 71.0592 20.816C70.4459 20.8773 69.8326 20.9693 69.2192 21.092C68.6059 21.1533 68.1766 21.184 67.9312 21.184C67.1952 21.2453 66.5819 21.3067 66.0912 21.368C65.6006 21.368 65.1406 21.368 64.7112 21.368C64.2819 21.368 63.8219 21.368 63.3312 21.368C62.8406 21.3067 62.2272 21.2453 61.4912 21.184C61.2459 29.28 61.1846 37.1 61.3072 44.644C61.4912 52.188 61.5832 59.732 61.5832 67.276C63.0552 67.1533 64.2819 67.1227 65.2632 67.184C66.2446 67.2453 67.1339 67.276 67.9312 67.276C68.7286 67.3373 69.4952 67.3373 70.2312 67.276C71.0286 67.2147 71.9486 67.0307 72.9912 66.724V66.356C73.2366 64.332 73.3592 62.308 73.3592 60.284C73.3592 58.26 73.2979 56.236 73.1752 54.212C73.1139 52.1267 73.0526 50.072 72.9912 48.048C72.9299 45.9627 72.9606 43.8467 73.0832 41.7C73.2059 40.044 73.6352 38.8173 74.3712 38.02C75.1072 37.1613 75.9352 36.6093 76.8552 36.364C77.7752 36.0573 78.6952 35.996 79.6152 36.18C80.5966 36.3027 81.3326 36.4867 81.8232 36.732C81.8846 36.7933 81.9459 36.824 82.0072 36.824C82.0686 36.824 82.1299 36.8547 82.1912 36.916C82.6819 37.284 83.0499 37.8053 83.2952 38.48C83.6019 39.1547 83.8166 39.9213 83.9392 40.78C84.1232 41.6387 84.2459 42.528 84.3072 43.448C84.3686 44.3067 84.4299 45.104 84.4912 45.84C84.6139 47.496 84.6752 49.2747 84.6752 51.176C84.7366 53.0773 84.7366 54.9787 84.6752 56.88C84.6752 58.7813 84.6752 60.6213 84.6752 62.4C84.6752 64.1787 84.7366 65.7733 84.8592 67.184C87.0059 67.184 88.9072 67.184 90.5632 67.184C92.2806 67.2453 94.2126 67.1227 96.3592 66.816C96.2366 64.976 96.1752 62.86 96.1752 60.468C96.2366 58.0147 96.2979 55.5 96.3592 52.924C96.4206 50.2867 96.4819 47.6493 96.5432 45.012C96.6046 42.3133 96.6046 39.768 96.5432 37.376C97.0952 36.9467 97.6779 36.64 98.2912 36.456C98.9659 36.2107 99.6099 36.088 100.223 36.088C100.898 36.088 101.511 36.1493 102.063 36.272C102.615 36.3947 103.075 36.548 103.443 36.732C103.505 36.7933 103.566 36.824 103.627 36.824C103.689 36.824 103.75 36.8547 103.811 36.916C104.302 37.284 104.67 37.8053 104.915 38.48C105.222 39.1547 105.437 39.9213 105.559 40.78C105.743 41.6387 105.866 42.528 105.927 43.448C105.989 44.3067 106.05 45.104 106.111 45.84C106.234 47.496 106.295 49.2747 106.295 51.176C106.357 53.0773 106.357 54.9787 106.295 56.88C106.295 58.7813 106.295 60.6213 106.295 62.4C106.295 64.1787 106.357 65.7733 106.479 67.184C108.626 67.184 110.527 67.184 112.183 67.184C113.901 67.2453 115.833 67.1227 117.979 66.816C117.857 64.7307 117.826 62.308 117.887 59.548C117.949 56.788 118.01 53.936 118.071 50.992C118.133 47.9867 118.163 45.0427 118.163 42.16C118.225 39.216 118.194 36.5173 118.071 34.064C118.01 31.6107 117.795 29.5253 117.427 27.808C117.121 26.0293 116.661 24.864 116.047 24.312C114.759 23.208 113.318 22.4413 111.723 22.012C110.129 21.5827 108.473 21.3987 106.755 21.46C105.099 21.5213 103.474 21.828 101.879 22.38C100.285 22.932 98.8432 23.668 97.5552 24.588C97.2486 24.8333 96.8806 25.0787 96.4512 25.324C96.0219 25.508 95.6539 25.692 95.3472 25.876C95.0406 25.14 94.7339 24.6187 94.4272 24.312C93.1392 23.208 91.6979 22.4413 90.1032 22.012C88.5086 21.5827 86.8526 21.3987 85.1352 21.46C83.4792 21.5213 81.8539 21.828 80.2592 22.38C78.6646 22.932 77.2232 23.668 75.9352 24.588C75.6286 24.8333 75.2299 25.0787 74.7392 25.324C74.3099 25.5693 73.9419 25.784 73.6352 25.968ZM133.674 84.664C133.735 83.4373 133.766 82.4867 133.766 81.812C133.827 81.1987 133.858 80.616 133.858 80.064C133.919 79.5733 133.95 79.0213 133.95 78.408C134.011 77.856 134.042 77.028 134.042 75.924C134.042 74.8813 134.042 73.4707 134.042 71.692C134.042 69.9133 134.011 67.5827 133.95 64.7C134.073 65.252 134.747 65.7427 135.974 66.172C137.201 66.6013 138.703 66.8773 140.482 67C142.261 67.184 144.131 67.184 146.094 67C148.118 66.8773 149.958 66.5093 151.614 65.896C152.963 65.4053 154.098 64.5773 155.018 63.412C155.999 62.1853 156.766 60.744 157.318 59.088C157.931 57.3707 158.361 55.5 158.606 53.476C158.913 51.452 159.066 49.3667 159.066 47.22C158.943 44.1533 158.729 41.1173 158.422 38.112C158.115 35.1067 157.441 32.408 156.398 30.016C155.417 27.5627 153.914 25.5693 151.89 24.036C149.866 22.4413 147.106 21.5213 143.61 21.276C141.893 21.0307 140.267 21.184 138.734 21.736C137.201 22.2267 135.974 23.392 135.054 25.232C134.87 25.6 134.686 25.7227 134.502 25.6C134.379 25.416 134.257 25.1707 134.134 24.864C134.134 24.1893 134.103 23.668 134.042 23.3C134.042 22.932 134.042 22.4413 134.042 21.828C134.042 21.5213 134.011 21.3067 133.95 21.184C132.11 20.9387 130.055 20.8773 127.786 21C125.517 21.0613 123.431 21.092 121.53 21.092C121.407 25.508 121.346 30.108 121.346 34.892C121.407 39.6147 121.469 44.46 121.53 49.428C121.653 54.3347 121.775 59.3333 121.898 64.424C122.021 69.5147 122.082 74.6053 122.082 79.696V85.768C123.063 85.952 124.229 86.044 125.578 86.044C126.927 86.1053 128.185 86.1053 129.35 86.044C130.577 86.044 131.589 85.9827 132.386 85.86C133.245 85.7987 133.674 85.7373 133.674 85.676V84.664ZM147.934 49.98C147.627 52.1267 146.707 53.752 145.174 54.856C143.702 55.96 141.709 56.512 139.194 56.512C137.906 56.512 136.863 56.42 136.066 56.236C135.33 55.9907 134.778 55.5 134.41 54.764C134.042 54.028 133.797 52.9853 133.674 51.636C133.613 50.2253 133.582 48.324 133.582 45.932C133.582 44.0307 133.613 42.252 133.674 40.596C133.797 38.94 134.073 37.5293 134.502 36.364C134.993 35.1987 135.667 34.2787 136.526 33.604C137.385 32.9293 138.611 32.592 140.206 32.592C141.494 32.592 142.659 32.9293 143.702 33.604C144.745 34.2787 145.634 35.1987 146.37 36.364C147.106 37.468 147.658 38.756 148.026 40.228C148.394 41.6387 148.578 43.1107 148.578 44.644C148.578 45.5027 148.547 46.392 148.486 47.312C148.425 48.232 148.241 49.1213 147.934 49.98ZM161.814 0.115995C161.262 5.69733 160.986 11.2787 160.986 16.86C161.047 22.4413 161.17 28.0227 161.354 33.604C161.538 39.1853 161.66 44.7667 161.722 50.348C161.844 55.9293 161.691 61.48 161.262 67C161.691 66.8773 162.55 66.8467 163.838 66.908C165.126 66.9693 166.475 67 167.886 67C169.358 67.0613 170.707 67.0613 171.934 67C173.16 67 173.927 66.816 174.234 66.448C174.111 63.9947 174.019 61.02 173.958 57.524C173.896 53.9667 173.866 50.164 173.866 46.116C173.866 42.068 173.866 37.8667 173.866 33.512C173.927 29.1573 173.988 24.956 174.05 20.908C174.111 16.86 174.172 13.0573 174.234 9.5C174.295 5.94266 174.326 2.90666 174.326 0.391997L161.814 0.115995ZM188.775 43.908C189.388 44.0307 190.369 44.1227 191.719 44.184C193.068 44.2453 194.571 44.276 196.227 44.276C197.944 44.276 199.723 44.2453 201.563 44.184C203.403 44.1227 205.12 44.0307 206.715 43.908C208.371 43.7853 209.781 43.6627 210.947 43.54C212.173 43.4173 213.001 43.2947 213.431 43.172C213.615 40.596 213.615 38.0507 213.431 35.536C213.247 33.0213 212.695 30.7213 211.775 28.636C210.916 26.5507 209.628 24.772 207.911 23.3C206.193 21.828 203.924 20.8467 201.103 20.356C198.895 19.804 196.625 19.5587 194.295 19.62C191.964 19.6813 189.756 20.0493 187.671 20.724C185.585 21.3373 183.715 22.288 182.059 23.576C180.403 24.8027 179.176 26.3053 178.379 28.084C177.643 30.108 177.152 32.1933 176.907 34.34C176.723 36.4253 176.539 38.6027 176.355 40.872C176.232 43.3867 176.293 45.9013 176.539 48.416C176.784 50.9307 177.244 53.3227 177.919 55.592C178.593 57.8 179.483 59.8547 180.587 61.756C181.691 63.596 183.071 65.0987 184.727 66.264C186.199 67.1227 187.793 67.6747 189.511 67.92C191.228 67.92 193.099 67.9813 195.123 68.104C197.208 68.2267 199.232 68.2267 201.195 68.104C203.157 67.9813 204.967 67.6133 206.623 67C208.279 66.3867 209.628 65.344 210.671 63.872C211.1 63.504 211.437 62.86 211.683 61.94C211.989 60.9587 212.235 59.824 212.419 58.536C212.603 57.1867 212.756 55.7453 212.879 54.212C213.001 52.6787 213.124 51.1147 213.247 49.52C212.572 49.336 211.713 49.244 210.671 49.244C209.628 49.1827 208.524 49.1827 207.359 49.244C206.255 49.3053 205.181 49.3667 204.139 49.428C203.096 49.428 202.268 49.3973 201.655 49.336C201.777 51.8507 201.379 53.752 200.459 55.04C199.6 56.2667 198.527 57.0027 197.239 57.248C195.951 57.4933 194.632 57.2787 193.283 56.604C191.933 55.9293 190.891 54.8867 190.155 53.476C189.48 52.372 189.081 51.2373 188.959 50.072C188.897 48.9067 188.836 47.404 188.775 45.564V43.908ZM199.907 29.648C201.011 30.2 201.869 31.028 202.483 32.132C203.157 33.236 203.495 34.4013 203.495 35.628C203.495 36.1187 203.495 36.456 203.495 36.64C203.495 36.7627 203.311 36.8547 202.943 36.916C202.636 36.916 202.084 36.8853 201.287 36.824C200.489 36.7627 199.293 36.732 197.699 36.732C195.368 36.732 193.589 36.7627 192.363 36.824C191.197 36.824 190.339 36.7933 189.787 36.732C189.235 36.6093 188.928 36.4253 188.867 36.18C188.867 35.8733 188.928 35.3827 189.051 34.708C189.173 33.9107 189.357 33.144 189.603 32.408C189.909 31.672 190.339 31.028 190.891 30.476C191.443 29.924 192.179 29.4947 193.099 29.188C194.019 28.8813 195.215 28.728 196.687 28.728C197.361 28.728 197.944 28.82 198.435 29.004C198.925 29.1267 199.416 29.3413 199.907 29.648ZM266.236 3.06C259.919 2.38533 253.418 2.07866 246.732 2.14C240.108 2.14 233.668 2.17066 227.412 2.23199C227.412 2.29333 227.412 2.324 227.412 2.324C227.474 2.324 227.504 2.35467 227.504 2.416C227.382 3.888 227.32 5.42133 227.32 7.016C227.32 8.61066 227.32 10.1133 227.32 11.524C227.382 12.8733 227.443 14.0387 227.504 15.02C227.627 16.0013 227.75 16.6147 227.872 16.86C228.24 16.9827 228.884 17.044 229.804 17.044C230.724 17.044 231.736 17.0747 232.84 17.136C233.944 17.136 235.048 17.1973 236.152 17.32C237.256 17.3813 238.176 17.596 238.912 17.964L239.004 18.056C239.372 26.6427 239.587 33.972 239.648 40.044C239.771 46.116 239.802 51.1147 239.74 55.04C239.74 58.904 239.71 61.8173 239.648 63.78C239.587 65.7427 239.587 66.8467 239.648 67.092C240.752 66.908 241.948 66.816 243.236 66.816C244.524 66.816 245.812 66.816 247.1 66.816C248.45 66.816 249.768 66.816 251.056 66.816C252.406 66.7547 253.632 66.632 254.736 66.448V66.356V66.264C254.614 59.5787 254.522 53.7827 254.46 48.876C254.399 43.908 254.338 39.676 254.276 36.18C254.215 32.6227 254.154 29.74 254.092 27.532C254.092 25.2627 254.092 23.4533 254.092 22.104C254.092 20.6933 254.092 19.6813 254.092 19.068C254.154 18.3933 254.215 17.9027 254.276 17.596C254.276 17.5347 254.276 17.504 254.276 17.504C254.338 17.4427 254.368 17.3813 254.368 17.32H254.46H254.644C257.527 17.1973 259.827 17.1053 261.544 17.044C263.262 16.9827 264.703 17.0747 265.868 17.32C266.175 15.112 266.328 12.6893 266.328 10.052C266.39 7.41466 266.359 5.08399 266.236 3.06ZM263.72 25.048C263.536 25.7227 263.26 26.6427 262.892 27.808C262.524 28.912 262.31 29.8013 262.248 30.476C262.064 31.6413 261.942 32.776 261.88 33.88C261.819 34.9227 261.788 35.996 261.788 37.1C261.972 39.124 262.003 41.3627 261.88 43.816C261.819 46.2693 261.85 48.7227 261.972 51.176C262.095 53.568 262.463 55.868 263.076 58.076C263.69 60.284 264.824 62.124 266.48 63.596C268.627 65.7427 271.264 67.092 274.392 67.644C276.11 67.644 278.011 67.7053 280.096 67.828C282.182 68.012 284.206 68.012 286.168 67.828C288.131 67.7053 289.94 67.3373 291.596 66.724C293.314 66.1107 294.694 65.068 295.736 63.596C296.35 62.9827 296.81 61.848 297.116 60.192C297.484 58.536 297.76 56.6653 297.944 54.58C298.19 52.4947 298.343 50.3173 298.404 48.048C298.527 45.7787 298.619 43.7547 298.68 41.976C298.619 39.952 298.558 37.9893 298.496 36.088C298.435 34.1253 298.282 32.3467 298.036 30.752C297.791 29.096 297.423 27.6547 296.932 26.428C296.442 25.2013 295.767 24.312 294.908 23.76C293.62 22.5333 292.087 21.6133 290.308 21C288.53 20.3253 286.659 19.9267 284.696 19.804C283.408 19.6813 282.182 19.6813 281.016 19.804C279.912 19.8653 278.747 19.8347 277.52 19.712C276.048 19.712 274.576 19.804 273.104 19.988C271.694 20.172 270.344 20.5093 269.056 21C267.83 21.4293 266.726 21.9813 265.744 22.656C264.824 23.3307 264.15 24.128 263.72 25.048ZM275.22 35.904C276.018 34.9227 277.06 34.248 278.348 33.88C280.74 33.328 282.672 33.5427 284.144 34.524C285.616 35.5053 286.506 37.0693 286.812 39.216C287.18 40.9947 287.272 42.896 287.088 44.92C286.966 46.8827 286.782 48.8453 286.536 50.808C286.168 52.3413 285.463 53.3533 284.42 53.844C283.623 54.2733 282.611 54.58 281.384 54.764C280.158 54.8867 278.962 54.8253 277.796 54.58C276.692 54.2733 275.742 53.752 274.944 53.016C274.147 52.2187 273.779 51.1147 273.84 49.704C273.963 47.5573 274.024 45.5333 274.024 43.632C274.024 41.6693 274.147 39.7067 274.392 37.744C274.576 36.7627 274.852 36.1493 275.22 35.904ZM325.382 3.336C325.321 4.56266 325.26 5.51333 325.198 6.188C325.198 6.80133 325.168 7.384 325.106 7.936C325.106 8.42667 325.076 8.97867 325.014 9.592C325.014 10.144 325.014 10.972 325.014 12.076C325.014 13.1187 325.014 14.5293 325.014 16.308C325.014 18.0867 325.045 20.4173 325.106 23.3C324.984 22.748 324.309 22.2573 323.082 21.828C321.856 21.3987 320.353 21.1227 318.574 21C316.796 20.816 314.894 20.816 312.87 21C310.908 21.1227 309.098 21.4907 307.442 22.104C306.093 22.5947 304.928 23.4533 303.946 24.68C303.026 25.8453 302.26 27.2867 301.646 29.004C301.094 30.66 300.665 32.5 300.358 34.524C300.113 36.548 299.99 38.6333 299.99 40.78C300.052 43.8467 300.236 46.8827 300.542 49.888C300.91 52.8933 301.585 55.6227 302.566 58.076C303.609 60.468 305.142 62.4613 307.166 64.056C309.19 65.5893 311.95 66.4787 315.446 66.724C317.164 66.9693 318.789 66.8467 320.322 66.356C321.856 65.804 323.082 64.608 324.002 62.768C324.186 62.4 324.34 62.308 324.462 62.492C324.646 62.6147 324.8 62.8293 324.922 63.136C324.922 63.8107 324.922 64.332 324.922 64.7C324.984 65.068 325.014 65.5587 325.014 66.172C325.014 66.4787 325.045 66.6933 325.106 66.816C326.946 67.0613 329.001 67.1227 331.27 67C333.54 66.9387 335.625 66.908 337.526 66.908C337.772 58.076 337.741 48.6613 337.434 38.664C337.128 28.6667 336.974 18.5467 336.974 8.304V2.23199C335.993 2.048 334.828 1.956 333.478 1.956C332.129 1.89467 330.841 1.89467 329.614 1.956C328.449 1.956 327.437 2.01733 326.578 2.14C325.781 2.20133 325.382 2.26266 325.382 2.324V3.336ZM311.122 38.02C311.429 35.8733 312.318 34.248 313.79 33.144C315.324 32.04 317.348 31.488 319.862 31.488C321.15 31.488 322.162 31.6107 322.898 31.856C323.696 32.04 324.278 32.5 324.646 33.236C325.014 33.972 325.229 35.0453 325.29 36.456C325.413 37.8053 325.474 39.676 325.474 42.068C325.474 44.0307 325.413 45.84 325.29 47.496C325.229 49.0907 324.953 50.4707 324.462 51.636C324.033 52.8013 323.358 53.7213 322.438 54.396C321.58 55.0707 320.384 55.408 318.85 55.408C317.562 55.408 316.397 55.0707 315.354 54.396C314.312 53.7213 313.422 52.832 312.686 51.728C311.95 50.5627 311.398 49.2747 311.03 47.864C310.662 46.392 310.478 44.8893 310.478 43.356C310.478 42.4973 310.509 41.608 310.57 40.688C310.632 39.768 310.816 38.8787 311.122 38.02ZM342.024 25.048C341.84 25.7227 341.564 26.6427 341.196 27.808C340.828 28.912 340.614 29.8013 340.552 30.476C340.368 31.6413 340.246 32.776 340.184 33.88C340.123 34.9227 340.092 35.996 340.092 37.1C340.276 39.124 340.307 41.3627 340.184 43.816C340.123 46.2693 340.154 48.7227 340.276 51.176C340.399 53.568 340.767 55.868 341.38 58.076C341.994 60.284 343.128 62.124 344.784 63.596C346.931 65.7427 349.568 67.092 352.696 67.644C354.414 67.644 356.315 67.7053 358.4 67.828C360.486 68.012 362.51 68.012 364.472 67.828C366.435 67.7053 368.244 67.3373 369.9 66.724C371.618 66.1107 372.998 65.068 374.04 63.596C374.654 62.9827 375.114 61.848 375.42 60.192C375.788 58.536 376.064 56.6653 376.248 54.58C376.494 52.4947 376.647 50.3173 376.708 48.048C376.831 45.7787 376.923 43.7547 376.984 41.976C376.923 39.952 376.862 37.9893 376.8 36.088C376.739 34.1253 376.586 32.3467 376.34 30.752C376.095 29.096 375.727 27.6547 375.236 26.428C374.746 25.2013 374.071 24.312 373.212 23.76C371.924 22.5333 370.391 21.6133 368.612 21C366.834 20.3253 364.963 19.9267 363 19.804C361.712 19.6813 360.486 19.6813 359.32 19.804C358.216 19.8653 357.051 19.8347 355.824 19.712C354.352 19.712 352.88 19.804 351.408 19.988C349.998 20.172 348.648 20.5093 347.36 21C346.134 21.4293 345.03 21.9813 344.048 22.656C343.128 23.3307 342.454 24.128 342.024 25.048ZM353.524 35.904C354.322 34.9227 355.364 34.248 356.652 33.88C359.044 33.328 360.976 33.5427 362.448 34.524C363.92 35.5053 364.81 37.0693 365.116 39.216C365.484 40.9947 365.576 42.896 365.392 44.92C365.27 46.8827 365.086 48.8453 364.84 50.808C364.472 52.3413 363.767 53.3533 362.724 53.844C361.927 54.2733 360.915 54.58 359.688 54.764C358.462 54.8867 357.266 54.8253 356.1 54.58C354.996 54.2733 354.046 53.752 353.248 53.016C352.451 52.2187 352.083 51.1147 352.144 49.704C352.267 47.5573 352.328 45.5333 352.328 43.632C352.328 41.6693 352.451 39.7067 352.696 37.744C352.88 36.7627 353.156 36.1493 353.524 35.904Z" fill="#E44232"/>
</svg>
